<svg id="Layer_1" data-name="Layer 1" xmlns="http://www.w3.org/2000/svg" viewBox="0 0 1920 1080"><defs><style>.cls-1{fill:#0d1321;}</style></defs><title>Banner_B-T</title><path class="cls-1" d="M431.24,483c-45,1-75.5,16.94-75.5,64.44,0,61.75,51.5,64.25,75.75,63.25h38.25v34.5a2.55,2.55,0,0,1-2.75,2.25h-32.5c-49.75,0-117.25-14.5-117.25-100,0-88.75,68.25-100,117.25-100H467c1.75,0,2.75,1.25,3.25,4.25l-.5,31.31Z"/><path class="cls-1" d="M1118.73,612.69v32.5a2.55,2.55,0,0,1-2.75,2.25H1010.73a2.74,2.74,0,0,1-2.75-2.25V449.69a2.74,2.74,0,0,1,2.75-2.25h33a2.47,2.47,0,0,1,2.5,2.25v160.5H1116A2.57,2.57,0,0,1,1118.73,612.69Z"/><path class="cls-1" d="M1283.32,647.37c40-1.41,70.17-24.94,71.14-64.71C1353.43,621.48,1322.15,645.86,1283.32,647.37Z"/><path class="cls-1" d="M1281.24,610.66c18.13-.59,35.49-10.35,35.49-30v-.25C1314.55,599.56,1299,610,1281.24,610.66Zm-76.74-28c1,39.77,31.19,63.3,71.14,64.71C1236.81,645.86,1205.53,621.48,1204.5,582.66Z"/><path class="cls-1" d="M1354.48,449.69v131c0,.66,0,1.32,0,2-1,38.82-32.31,63.2-71.14,64.71-1.27,0-2.55.07-3.84.07s-2.57,0-3.84-.07c-38.83-1.51-70.11-25.89-71.14-64.71,0-.65,0-1.31,0-2v-131a2.68,2.68,0,0,1,2.5-2.25h32.5a2.55,2.55,0,0,1,2.75,2.25V580.44c2.18,19.12,17.72,29.57,35.49,30.22.59,0,1.17,0,1.76,0s1.17,0,1.76,0c18.13-.59,35.49-10.35,35.49-30v-131a2.55,2.55,0,0,1,2.75-2.25H1352A2.68,2.68,0,0,1,1354.48,449.69Z"/><path class="cls-1" d="M1565.88,589.85c0,34.7-25.79,55.07-55.12,57.95a68.52,68.52,0,0,1-8.72.56c-34.46,0-61.13-23.14-61.63-57.35-.25-.75,1-2,2.77-2h32.22c1.44,0,2.63,1.2,2.63,1.91.48,13.65,11,20.11,23.46,20.11l1.15,0h.68c13.1-.5,23.61-8.69,23.61-24.12a20.85,20.85,0,0,0-3.21-11.48,28.25,28.25,0,0,0-16.42-10,31.61,31.61,0,0,0-5.25-.44,73.26,73.26,0,0,1-29.37-6.72c-20.9-9.7-32.35-29.11-32.35-52.5,0-36.9,29.18-57.51,60.61-58,1.76-.14,3.52-.21,5.29-.21,34.09,0,57.73,23.77,58.23,57.45.25.75-1,2-2.74,2h-30.81c-1.51,0-2.76-1.25-2.76-2-.51-14.27-11.57-21-24.65-21-13.84,0-25.16,8.26-25.16,24.28a21.17,21.17,0,0,0,2.38,10A28.18,28.18,0,0,0,1502,530.14a62.89,62.89,0,0,1,7.53.48h.09a74.76,74.76,0,0,1,23.52,6.4C1554.31,546.79,1565.88,566.32,1565.88,589.85Z"/><path class="cls-1" d="M1118.24,708c-345,220-795,382-886.93,297.46S371.24,708,371.24,708h43S174.92,932.27,259.08,990.63,852.75,855,1062.49,708Z"/><path class="cls-1" d="M801.76,372c345-220,795-382,886.93-297.46S1548.76,372,1548.76,372h-43s239.28-224.27,155.12-282.63S1067.25,225,857.51,372Z"/><path class="cls-1" d="M511.15,763q8.64-9.19,16.21-17.91C522.24,751,516.83,757,511.15,763Z"/><path class="cls-1" d="M510.25,764c-5.4,5.74-9.18,9.53-11.57,11.66Q504.65,769.81,510.25,764Z"/><path class="cls-1" d="M604.24,540c10.5-22.39,41-90,41-90,.18-.5,4.54-12.18,11-29.47,7.29-19.43,17.25-45.94,27-71.63h0a8.38,8.38,0,0,0-1.15-3.14,26.92,26.92,0,0,1-3-11.87c0-6.35-.83-6.9-13.81-6.9-9.39,0-14.36-1.39-15.46-3.87C649,321.18,655,309.58,663,297.7l14.64-21.53,1.66-40.32c1.38-31.48,3.31-46.95,9.94-72.63,4.68-17.89,9.82-33.67,10-33.67s5.29,15.78,10,33.67c6.63,25.68,8.56,41.15,9.94,72.63l1.66,40.32,14.64,21.53c8,11.88,14.08,23.48,13.25,25.41-1.1,2.48-6.07,3.87-15.46,3.87-13,0-13.81.55-13.81,6.9a26.92,26.92,0,0,1-3,11.87c-.31.52-1.15,1.58-1.15,1.58h0l-2,358.66-39,57V472l-15.5,37.35-5,10.7L594.24,647s-16.63,40.4-66.8,98l-.08.09q-7.58,8.7-16.21,17.91l-.9,1q-5.61,5.85-11.57,11.66A415.41,415.41,0,0,1,446.24,819h-41c86.9-60.35,137.42-147.87,153.43-179.3"/><path class="cls-1" d="M896.64,647.88H804.39a2.74,2.74,0,0,1-2.75-2.25V450.13a2.74,2.74,0,0,1,2.75-2.25h92.25v36.25H839.89v45.25l57.35-.38c1.5,0,2,.75,2,2v33a1.83,1.83,0,0,1-2,2l-57.35-.37v45h56.75Z"/></svg>